<svg xmlns="http://www.w3.org/2000/svg" width="152" height="44" viewBox="0 0 152 44">
  <g fill="#03F">
    <path d="M44 0H0v44h44V0zM31.206 35.18h-7.567C16.41 35.106 10.59 29.227 10.59 22S16.411 8.893 23.64 8.82h7.567v26.36zM130.528 9.874c-.909 0-1.645.724-1.646 1.617v.056c0 .894.737 1.618 1.646 1.618.908 0 1.645-.724 1.645-1.618v-.056c-.001-.893-.737-1.616-1.645-1.617zM73.054 15.072c-1.01-.018-2.012.184-2.936.59-.822.366-1.557.9-2.157 1.568-.583.667-1.032 1.44-1.323 2.275-.308.862-.466 1.77-.465 2.684-.002.912.155 1.817.465 2.675.293.83.742 1.598 1.323 2.262.602.664 1.336 1.195 2.157 1.558.924.407 1.926.608 2.936.59.825.007 1.644-.14 2.415-.432.688-.253 1.313-.655 1.829-1.175l.14-.145v1.373h2.94V15.45h-2.94v1.377l-.14-.145c-.517-.518-1.141-.919-1.83-1.173-.77-.294-1.589-.442-2.414-.437zm4.143 5.19c.476 1.241.476 2.613 0 3.853-.22.526-.55.998-.971 1.384-.402.36-.873.637-1.384.814-.508.175-1.04.264-1.578.263-.582.007-1.159-.115-1.688-.357-.495-.23-.94-.553-1.313-.951-.373-.405-.662-.88-.85-1.397-.2-.54-.3-1.112-.298-1.689-.001-.58.1-1.157.298-1.703.186-.522.475-1.002.85-1.411.372-.399.818-.722 1.313-.951.527-.238 1.1-.358 1.678-.35.537-.002 1.07.087 1.577.263.517.177.99.46 1.39.831.421.394.753.872.976 1.402zM85.525 12.126H82.63v12.671c0 1.25.417 2.26 1.242 3.005.824.745 2.084 1.127 3.75 1.127h2.11v-2.54h-2.084c-1.412 0-2.127-.712-2.127-2.114v-6.21h4.207v-2.541h-4.203v-3.398zM97.483 15.072c-1.01-.018-2.013.184-2.937.59-.82.367-1.554.901-2.153 1.568-.586.667-1.038 1.439-1.331 2.275-.307.862-.464 1.77-.464 2.684 0 .91.156 1.812.464 2.668.295.831.747 1.6 1.33 2.262.6.666 1.334 1.199 2.154 1.565.924.406 1.927.608 2.937.59.825.007 1.643-.14 2.414-.432.688-.254 1.313-.655 1.83-1.175l.132-.145v1.373h2.944V15.45h-2.937v1.377l-.133-.145c-.519-.52-1.146-.92-1.836-1.173-.77-.294-1.589-.442-2.414-.437zm4.144 5.19c.477 1.241.477 2.613 0 3.853-.22.526-.55.997-.97 1.384-.404.362-.877.64-1.39.818-.508.174-1.04.264-1.577.263-.583.007-1.16-.115-1.689-.357-.495-.23-.94-.553-1.313-.951-.373-.405-.662-.88-.85-1.397-.2-.54-.3-1.112-.298-1.689-.001-.58.1-1.157.296-1.703.187-.522.477-1.002.852-1.411.372-.399.818-.722 1.313-.951.53-.243 1.106-.365 1.689-.357.536-.001 1.07.088 1.577.263.516.177.99.46 1.39.831.418.396.75.874.97 1.405zM129.055 15.417H132V28.929000000000002H129.055zM149.583 9.874c-.908 0-1.645.724-1.646 1.617v.056c0 .894.737 1.618 1.646 1.618.909 0 1.645-.724 1.645-1.618v-.056c-.001-.893-.737-1.616-1.645-1.617zM148.283 15.417H151.22799999999998V28.929000000000002H148.283zM118.486 23.893V15.59h-2.938v8.302c0 1.525-1.244 2.762-2.777 2.762-1.534 0-2.777-1.237-2.777-2.762V15.59h-2.939v8.173c.004 3.138 2.56 5.681 5.716 5.685 1.592.004 3.112-.66 4.187-1.83l.06-.063.059.063c1.596 1.714 4.084 2.281 6.271 1.43 2.187-.852 3.627-2.949 3.628-5.285v-8.173h-2.935v8.302c0 1.525-1.244 2.762-2.778 2.762-1.533 0-2.777-1.237-2.777-2.762zM142.96 21.147c1.884-1.965 2.82-4.367 3.213-5.638l.012-.038h-3.033c-.712 1.856-2.345 4.916-5.539 5.6V10.048h-2.841V28.93h2.848v-4.96c1.079-.153 2.12-.506 3.069-1.04l3.164 5.996h3.218l-4.11-7.778zM56.747 17.212c-.628.63-1.127 1.374-1.47 2.192-.362.874-.545 1.812-.537 2.758-.007.948.176 1.888.538 2.765.338.825.838 1.576 1.469 2.208.63.624 1.378 1.116 2.202 1.448.88.352 1.822.528 2.771.519h3.934v-2.617H61.9c-.572.005-1.138-.108-1.663-.334-.493-.215-.936-.529-1.301-.922-.366-.398-.653-.86-.846-1.364-.408-1.103-.408-2.315 0-3.418.193-.503.48-.966.846-1.364.364-.39.808-.697 1.3-.902.528-.217 1.094-.326 1.664-.32h3.754v-2.617H61.72c-.95-.006-1.89.173-2.771.527-.823.33-1.572.82-2.202 1.44z"/>
  </g>
</svg>
